<?xml version="1.0" standalone="no"?>
<!DOCTYPE svg PUBLIC "-//W3C//DTD SVG 20010904//EN"
 "http://www.w3.org/TR/2001/REC-SVG-20010904/DTD/svg10.dtd">
<svg version="1.0" xmlns="http://www.w3.org/2000/svg"
 width="225.000000pt" height="225.000000pt" viewBox="0 0 225.000000 225.000000"
 preserveAspectRatio="xMidYMid meet">

<g transform="translate(0.000000,225.000000) scale(0.100000,-0.100000)"
fill="#000000" stroke="none">
<path d="M1065 2154 c-74 -18 -180 -63 -236 -100 -69 -45 -153 -128 -184 -180
-18 -31 -20 -32 -104 -36 -105 -5 -160 -28 -231 -94 -71 -66 -102 -137 -108
-244 l-4 -85 -52 -55 c-63 -67 -90 -110 -116 -186 -83 -240 33 -515 265 -630
l79 -39 259 -3 c233 -3 261 -2 278 14 23 20 24 53 5 80 -13 18 -32 19 -263 24
-246 5 -249 5 -304 33 -151 73 -250 265 -219 421 21 106 63 170 174 263 36 30
38 35 30 65 -5 18 -8 61 -8 94 0 79 37 145 107 188 54 33 136 45 187 28 46
-17 73 -1 110 65 89 157 270 263 452 263 153 0 267 -47 375 -155 83 -83 125
-159 149 -275 8 -41 17 -77 20 -81 2 -4 30 -15 61 -24 32 -9 76 -26 98 -37
171 -86 271 -296 231 -487 -26 -124 -94 -225 -199 -292 -93 -61 -138 -69 -359
-69 -159 0 -198 -3 -216 -16 -28 -19 -29 -64 -3 -88 17 -16 42 -17 248 -14
207 3 234 5 288 26 158 59 288 195 346 362 29 85 32 246 5 335 -48 162 -153
285 -303 356 -88 42 -93 46 -103 84 -45 167 -156 320 -294 404 -101 61 -187
84 -321 87 -66 2 -129 1 -140 -2z"/>
<path d="M927 1223 c-155 -154 -197 -204 -197 -233 0 -20 40 -50 67 -50 20 0
53 27 145 117 l118 117 0 -515 c0 -393 3 -520 13 -539 9 -19 22 -26 49 -28 70
-6 68 -23 68 562 l0 520 118 -117 c128 -126 151 -138 193 -96 37 37 19 63
-170 252 -147 147 -182 177 -206 177 -24 0 -58 -29 -198 -167z"/>
</g>
</svg>
